<svg width="30" height="30" viewBox="0 0 30 30" fill="none" xmlns="http://www.w3.org/2000/svg">
<path d="M15 6.5625C15.649 6.5625 16.2834 6.37006 16.823 6.00951C17.3626 5.64896 17.7831 5.1365 18.0315 4.53693C18.2798 3.93736 18.3448 3.27761 18.2182 2.64111C18.0916 2.00461 17.7791 1.41995 17.3202 0.961057C16.8613 0.502166 16.2766 0.189658 15.6401 0.0630498C15.0036 -0.063558 14.3439 0.00142174 13.7443 0.249772C13.1447 0.498122 12.6323 0.918688 12.2717 1.45829C11.9112 1.99789 11.7187 2.63228 11.7187 3.28125C11.7187 4.15149 12.0644 4.98609 12.6798 5.60145C13.2952 6.2168 14.1298 6.5625 15 6.5625ZM25.3125 26.25H4.68745C4.43881 26.25 4.20035 26.3488 4.02453 26.5246C3.84872 26.7004 3.74995 26.9389 3.74995 27.1875V29.0625C3.74995 29.3111 3.84872 29.5496 4.02453 29.7254C4.20035 29.9012 4.43881 30 4.68745 30H25.3125C25.5612 30 25.7997 29.9012 25.9755 29.7254C26.1513 29.5496 26.2501 29.3111 26.2501 29.0625V27.1875C26.2501 26.9389 26.1513 26.7004 25.9755 26.5246C25.7997 26.3488 25.5612 26.25 25.3125 26.25ZM29.5823 10.7906L27.9118 9.85781C27.4758 9.56485 26.921 9.71367 26.6057 10.132C26.2917 10.5524 25.8654 10.8757 25.3758 11.0646C24.8863 11.2536 24.3534 11.3006 23.8383 11.2002C22.4825 10.9488 21.5625 9.66387 21.5625 8.28516C21.5625 8.07692 21.4798 7.87721 21.3326 7.72997C21.1853 7.58272 20.9856 7.5 20.7774 7.5H18.5057C18.1541 7.5 17.8254 7.73438 17.7522 8.08067C17.6192 8.71211 17.2731 9.27862 16.7721 9.68519C16.271 10.0918 15.6453 10.3137 15 10.3137C14.3547 10.3137 13.729 10.0918 13.2279 9.68519C12.7269 9.27862 12.3808 8.71211 12.2478 8.08067C12.1746 7.73379 11.8482 7.5 11.4943 7.5H9.22263C9.01439 7.5 8.81468 7.58272 8.66744 7.72997C8.52019 7.87721 8.43747 8.07692 8.43747 8.28516C8.43747 9.79043 7.32418 11.1416 5.82007 11.2436C5.35271 11.2765 4.8846 11.1909 4.45911 10.9948C4.03363 10.7986 3.66455 10.4983 3.38608 10.1215C3.0767 9.70606 2.52299 9.56777 2.09173 9.85547L0.417703 10.793C0.227507 10.9197 0.0901491 11.1115 0.0314506 11.3324C-0.0272478 11.5533 -0.00324338 11.788 0.0989512 11.9924L6.10777 24.375H23.8922L29.901 11.99C30.0032 11.7856 30.0272 11.5509 29.9685 11.33C29.9098 11.1092 29.7725 10.9173 29.5823 10.7906Z" fill="#E1C8F4"/>
</svg>
