<svg width="15" height="16" viewBox="0 0 15 16" fill="none" xmlns="http://www.w3.org/2000/svg">
<path d="M6.37764 1.50469L7.12086 0.742157C7.43555 0.419281 7.94443 0.419281 8.25577 0.742157L14.764 7.41608C15.0787 7.73895 15.0787 8.26105 14.764 8.58049L8.25577 15.2578C7.94108 15.5807 7.43221 15.5807 7.12086 15.2578L6.37764 14.4953C6.05959 14.169 6.06629 13.6366 6.39103 13.3172L10.4252 9.37394H0.803482C0.358219 9.37394 0 9.00641 0 8.54958V7.45042C0 6.99359 0.358219 6.62606 0.803482 6.62606H10.4252L6.39103 2.68285C6.06294 2.36341 6.05624 1.83101 6.37764 1.50469Z" fill="black"/>
</svg>
